<svg width="499.99999999999994" height="499.99999999999994" xmlns="http://www.w3.org/2000/svg" xmlns:undefined="http://sodipodi.sourceforge.net/DTD/sodipodi-0.dtd" xml:space="preserve" version="1.1">

 <g>
  <title>Layer 1</title>
  <g id="svg_1">
   <path fill-rule="evenodd" fill="#1b1817" id="path16" d="m250.00198,18.04605c-131.33067,0 -237.82638,106.47602 -237.82638,237.82638c0,105.07792 68.1445,194.2254 162.64019,225.67277c11.88581,2.20151 16.24945,-5.15918 16.24945,-11.44078c0,-5.67116 -0.22055,-24.40568 -0.32294,-44.27837c-66.16353,14.38663 -80.12482,-28.06043 -80.12482,-28.06043c-10.81852,-27.48937 -26.40634,-34.79887 -26.40634,-34.79887c-21.57797,-14.76077 1.62652,-14.45752 1.62652,-14.45752c23.88188,1.67378 36.45689,24.51201 36.45689,24.51201c21.21171,36.3545 55.63644,25.84316 69.20784,19.76635c2.13456,-15.37121 8.29801,-25.86679 15.09946,-31.80182c-52.82449,-6.01379 -108.35459,-26.40634 -108.35459,-117.53478c0,-25.96525 9.29046,-47.1809 24.50414,-63.83599c-2.46932,-5.9941 -10.60979,-30.17923 2.30391,-62.93806c0,0 19.97115,-6.39187 65.41919,24.37811c18.97082,-5.26945 39.3161,-7.91206 59.52748,-8.00264c20.21138,0.09058 40.57242,2.73318 59.57868,8.00264c45.39291,-30.76998 65.33648,-24.37811 65.33648,-24.37811c12.94521,32.75882 4.80079,56.94396 2.33148,62.93806c15.24912,16.65509 24.47657,37.87074 24.47657,63.83599c0,91.34505 -55.63644,111.45798 -108.59483,117.34574c8.53037,7.38038 16.1313,21.85366 16.1313,44.04207c0,31.82151 -0.27568,57.43231 -0.27568,65.2656c0,6.32886 4.28094,13.74469 16.33609,11.40927c94.4445,-31.48281 162.50235,-120.59878 162.50235,-225.64126c0,-131.35036 -106.47996,-237.82638 -237.82244,-237.82638"/>
   <path fill-rule="nonzero" fill="#1b1817" id="path18" d="m102.25252,359.51287c-0.52379,1.18543 -2.38267,1.53594 -4.07615,0.72465c-1.72498,-0.77585 -2.6938,-2.38661 -2.13456,-3.57204c0.51198,-1.213 2.3748,-1.55169 4.09584,-0.74434c1.72892,0.77978 2.71349,2.4063 2.11487,3.59173l0,0"/>
   <path fill-rule="nonzero" fill="#1b1817" id="path20" d="m111.88561,370.25657c-1.13423,1.05153 -3.3515,0.56318 -4.85593,-1.09879c-1.55563,-1.65803 -1.84707,-3.87529 -0.69708,-4.94257c1.16968,-1.04759 3.31999,-0.5553 4.87956,1.09879c1.55563,1.67772 1.85888,3.87923 0.67345,4.94257l0,0"/>
   <path fill-rule="nonzero" fill="#1b1817" id="path22" d="m121.26272,383.954c-1.45717,1.01214 -3.83985,0.06301 -5.31277,-2.05186c-1.45717,-2.11487 -1.45717,-4.65114 0.03151,-5.66722c1.47686,-1.01608 3.82409,-0.09846 5.31671,1.99672c1.45323,2.15031 1.45323,4.68658 -0.03544,5.72236l0,0"/>
   <path fill-rule="nonzero" fill="#1b1817" id="path24" d="m134.10947,397.1867c-1.30358,1.43748 -4.08008,1.05153 -6.11225,-0.90975c-2.07943,-1.91795 -2.65836,-4.63932 -1.35084,-6.07681c1.31933,-1.44142 4.11159,-1.03577 6.15951,0.90975c2.06367,1.91402 2.6938,4.65508 1.30358,6.07681l0,0"/>
   <path fill-rule="nonzero" fill="#1b1817" id="path26" d="m151.83184,404.87034c-0.57499,1.86282 -3.2491,2.70955 -5.9429,1.91795c-2.68986,-0.81523 -4.45028,-2.99705 -3.9068,-4.87956c0.55924,-1.87463 3.24516,-2.75681 5.95866,-1.91008c2.68592,0.81129 4.45028,2.97736 3.89105,4.87168l0,0"/>
   <path fill-rule="nonzero" fill="#1b1817" id="path28" d="m171.29495,406.296c0.06695,1.96128 -2.21727,3.5878 -5.04497,3.62324c-2.84346,0.06301 -5.14343,-1.52412 -5.17493,-3.45389c0,-1.98097 2.23302,-3.59173 5.07648,-3.63899c2.8277,-0.05514 5.14343,1.52019 5.14343,3.46965l0,0"/>
   <path fill-rule="nonzero" fill="#1b1817" id="path30" d="m189.40721,403.21231c0.33869,1.91402 -1.62652,3.87923 -4.43453,4.40303c-2.76075,0.5041 -5.31671,-0.67739 -5.66722,-2.57565c-0.34263,-1.96128 1.65803,-3.92649 4.41484,-4.43453c2.81195,-0.48835 5.32853,0.66164 5.68691,2.60716l0,0"/>
  </g>
 </g>
</svg>