<?xml version="1.0" encoding="UTF-8"?>
<!-- Generator: Adobe Illustrator 13.0.2, SVG Export Plug-In . SVG Version: 6.00 Build 14948)  -->
<!DOCTYPE svg PUBLIC "-//W3C//DTD SVG 1.1//EN" "http://www.w3.org/Graphics/SVG/1.1/DTD/svg11.dtd">
<svg version="1.1" id="Layer_1" xmlns:x="http://ns.adobe.com/Extensibility/1.0/" xmlns:i="http://ns.adobe.com/AdobeIllustrator/10.0/" xmlns:graph="http://ns.adobe.com/Graphs/1.0/" xmlns="http://www.w3.org/2000/svg" xmlns:xlink="http://www.w3.org/1999/xlink" x="0px" y="0px" width="173px" height="82px" viewBox="0 0 173 82" enable-background="new 0 0 173 82" xml:space="preserve">
<metadata><?xpacket begin="﻿" id="W5M0MpCehiHzreSzNTczkc9d"?>
<x:xmpmeta xmlns:x="adobe:ns:meta/" x:xmptk="Adobe XMP Core 4.1-c036 46.277092, Fri Feb 23 2007 14:16:18        ">
   <rdf:RDF xmlns:rdf="http://www.w3.org/1999/02/22-rdf-syntax-ns#">
      <rdf:Description rdf:about="" xmlns:dc="http://purl.org/dc/elements/1.1/">
         <dc:format>image/svg+xml</dc:format>
      </rdf:Description>
      <rdf:Description rdf:about="" xmlns:xap="http://ns.adobe.com/xap/1.0/" xmlns:xapTPg="http://ns.adobe.com/xap/1.0/t/pg/" xmlns:xapGImg="http://ns.adobe.com/xap/1.0/g/img/">
         <xap:CreatorTool>Adobe Illustrator CS3</xap:CreatorTool>
         <xap:CreateDate>2012-04-18T22:49:12+10:00</xap:CreateDate>
         <xap:ModifyDate>2012-04-18T22:49:12+10:00</xap:ModifyDate>
         <xap:MetadataDate>2012-04-18T22:49:12+10:00</xap:MetadataDate>
         <xap:PageInfo>
            <rdf:Seq>
               <rdf:li rdf:parseType="Resource">
                  <xapTPg:PageNumber>1</xapTPg:PageNumber>
                  <xapGImg:format>JPEG</xapGImg:format>
                  <xapGImg:width>256</xapGImg:width>
                  <xapGImg:height>256</xapGImg:height>
                  <xapGImg:image>/9j/4AAQSkZJRgABAgEASABIAAD/7QAsUGhvdG9zaG9wIDMuMAA4QklNA+0AAAAAABAASAAAAAEA
AQBIAAAAAQAB/+4AE0Fkb2JlAGSAAAAAAQUAAgAD/9sAhAAMCAgICAgMCAgMEAsLCxAUDg0NDhQY
EhMTExIYFBIUFBQUEhQUGx4eHhsUJCcnJyckMjU1NTI7Ozs7Ozs7Ozs7AQ0LCxAOECIYGCIyKCEo
MjsyMjIyOzs7Ozs7Ozs7Ozs7Ozs7OztAQEBAQDtAQEBAQEBAQEBAQEBAQEBAQEBAQED/wAARCADG
AQADAREAAhEBAxEB/8QBQgAAAQUBAQEBAQEAAAAAAAAAAwABAgQFBgcICQoLAQABBQEBAQEBAQAA
AAAAAAABAAIDBAUGBwgJCgsQAAEEAQMCBAIFBwYIBQMMMwEAAhEDBCESMQVBUWETInGBMgYUkaGx
QiMkFVLBYjM0coLRQwclklPw4fFjczUWorKDJkSTVGRFwqN0NhfSVeJl8rOEw9N14/NGJ5SkhbSV
xNTk9KW1xdXl9VZmdoaWprbG1ub2N0dXZ3eHl6e3x9fn9xEAAgIBAgQEAwQFBgcHBgI7AQACEQMh
MRIEQVFhcSITBTKBkRShsUIjwVLR8DMkYuFygpJDUxVjczTxJQYWorKDByY1wtJEk1SjF2RFVTZ0
ZeLys4TD03Xj80aUpIW0lcTU5PSltcXV5fVWZnaGlqa2xtbm9ic3R1dnd4eXp7fH1+f3/9oADAMB
AAIRAxEAPwDzIBJS8BJSoCSlQkpUJKXhJSoCSl4CSl4CSlbR4JKX2hJS+0JKX2jwSUvtHgkpW0eC
Sl9g8ElK2DwSUraPBJSto8ElLbR4JKW2jwSUttHgkpbaElLbQkpUBJS0BJSoCSloCSloSUqElKgJ
KWjRJS4SUoAkwNSeElM/Rt/cd9xSUr0bf3HfcUlL+jb+477ikpf0bf3HfcUlK9G39x33FJS4pt/c
d9xSUosLTDgQfNJSgElMgElLhqSl9qSl9qSl9qSl9qSlbUlK2pKW2pKW2pKWLUlLFqSliElLEJKY
kJKew+p3+Lz/AJ2dMt6j+0PsnpXux/T9H1Z2srfu3erX/pPBJTu/+Mn/AObn/wBlf/flJS3/AIyf
/m5/9lf/AH5SUr/xk/8Azc/+yv8A78pKV/4yX/m5/wDZX/35SU8V136tN6LXY8ZDr/TvGPBq9MHS
w7p9R/7nCr4uY9yVU2M3Le3AStwyrDXUElJMa30Miq+N3pPa+OJ2kGElO9/zrb/3GP8An/8AmKNq
V/zqb/3GP+f/AOYpWpf/AJ1N/wC4x/z/APzFK1K/50t/7jH/AD//ADFK1L/86G/9xj/n/wDmKVqX
/wCc7f8AuMf8/wD8xStTl5+UM7JdkBmzcANszwI8kFIA1JTINSUuGpKZBqSl9qSl9qSl9qSlbUlK
2pKW2pKWLUlLbUlLFqSmJakpiWpKYkJKfX/8T+n1Zyf/AA9Z/wCesdJT3SSlJKat1GS+7fXZsaD2
MGIGmrXDkSkpFXRni2HWQ0e6QdD5Hukp8r/xg5XrYd1X2z7QWZ7Zqh/thuQJ97GjThUeVjIZCSd3
Q5yvZjUaeBKvOeoJKSY4m+v+u38qSnrOr/V2rqHXMy05RryOo9XzsTFpFW5psrtrI32eo3a0+tzB
j8iU1f8Am30/Nx+js6bkWDLzse3Iv9djK6g2l+T6r/UdfA2imAIgj3Et4SUvb9U8Sqy57upMdi0Y
xyXPrFN9oDLaKXNdXjZVzWk+vLZfrHbslIq/qzUcq2i3MAa2qi+gMYDbazJrFtZbU+2se0OAeA4k
ToHJKbtHQsJ2LZZ1vKvDqemfaaW10hxpDcx2KWkPuqkgjgx9I/u6pTnZXQhi49+Yb92OxtDsawNH
6Y5A3tbG87drWv3cwRCSnNDUlMg1JTINSUyDUlMg1JS4akpfakpfakpW1JStqSltqSltqSli1JTE
tSUxLUlMS1JTEtSU63SPrZ9YegYzsPpOX9npfYbXM9Op8vIa0mbK3HhoSU3D/jJ+uv8A5Y/+AUf+
kUlLH/GV9dv/ACx/8Ao/9IpKYn/GX9d//LL/AMAx/wD0ikpb/wAcz67/APll/wCAY/8A6RSU43UO
udT6oxzM2xjw+z1nbaqqyXgOEk1safzyo4YowNhknmnMUS55UjGoJKXaS0hw0IMhJTonr/V3ZVWY
7Im+jKsz637GaZFxY6x8bY1NbdOPJJTCvq/Ua6MfHrt2sxHF9B2t3s3bi5os279pLids7dTokpJd
1nqN5u32MaMir7PYyqquphr3st2hlTGtb76wSQJSUyr611Ku31vUY93pV0fpKq7AGUsFVUNsY4At
aNHc+aSkjevdX9YZD8g2WCp1BNrGWB1dljr3NsFjXB82PLpdOvwCSkvUuosyMPC6Zi2XPxcFryw3
gNJstdveQxrnhreANT494CU0A1JTINSUzDUlMg1JTINSUvtSUvtSUvtSUrakpW1JS21JS21JSxak
piWpKYlqSmJakpgWpKYEJKYkJKYEJKYkJKYkJKWSUseElLBJS6SlwElMwElMgElMwElMwElMw1JT
MNSUzDUlMg1JTINSUyDUlLhqSl4SUvtSUqElK2pKWhJS21JSxakpYtSUxLUlMC1JTAtSUwLUlMCE
lMCElMCElMSElMSElMTwkpQ4SUukpkAkpmAkpkAkpIAkpmGpKZhqSkgakpmAkpkGpKZAJKXASUyA
SUqElLwkpUJKVCSloSUqElLEJKYkJKYkJKYkJKYFqSmBakpgQkpG4JKYEJKYEJKYkJKYHhJSw4SU
yASUzASUzASUzASUkaElM2hJSQBJTMBJTqdG+r/VOuXNqwaSWEw650itnjudH4cpKezr/wAVuN9m
Atzn/aC3VzWD0w7+qTJHzSU4HVfqJ1zppe+qv7ZQ06WU6uI11Nf0hxrykp58tLSQ4QRyCkpeElKh
JS8JKVCSlQkpUJKWhJS0JKWISUxISUxISUxISUjISUwcElI3BJTBwSUjISUwISUwcNCkpYcJKZgJ
KZgJKZgJKSNCSkjQkpm0JKbnT+m53U7vs+BQ/IsiS1gmB4uPAHxSU9/0H/Frj1NZkddebbdD9mrM
MEHhzxq75Qkp7aiinGpZj47BXVWA1jGiAAOwRUzSUqUFOd1T6v8ASOse7Ox2vsiBa32vH9pvw7pK
eO6r/i6fU4HpOS2yQT6OQQ15iPouGh/BJTyub03P6c/087HsoJkDe0gGIna7g89klNaElKhJSoSU
pJSySlQkpYhJTEhJSxCSmBCSmBCSmBCSkbgkpG4JKYOCSkZCSmDhoUlMW8JKZgJKSAJKZtCSkjQk
pPRRdkWtooY62x52sYwFznHwAGqSnuPq/wD4tsm8jI68449Q1GOwg2O/rO1DR+PwSU9/03peB0ij
7N0+ltFffby4ju4nUlJTbSUtKSlSkpUpKVKSljBBBEg8g8JKR3Y+PkV+jfUy2vT2WNDm6caOlJTz
PUv8X/Ssv3YZdhWEknZ764/quII+RSU8h1T6o9b6WH2PpN1DNTdT7gBrqR9IceCSnGIIMHRJSySl
JKUkpZJSxSUsQkpgQkpiQkpGQkpg4JKRuCSkbgkpG4JKRuGhSUxbwkpIAkpm0JKSNCSnrPq79QOr
dZZVmZEYmFYA9r3avewnljPMcEpKfSuj/Vro3QmAYGOBZEG9/vsOkfSPE+UJKdSUlKlJSySlSkpS
SlSkpaUlKlJSpSUqUlMS0Eg9x4JKcvqn1a6P1UOdk44Frv8ADV+x866yNDz3SU8j1P8Axf5lT3O6
VaMhmpFdhDHjwE/RP4JKeXycPKwrPSy6X0v522NLTHzSUiSUskpZJSxSUxISUxISUwISUjcElI3B
JSNwSUjcElI3DQpKYN4CSkgSUkaElJGhJT6B9Wvr27CwKMPNqc6qhram2VjcA1sNG5vOg8J+CSnu
MDrfT+o1C3Gta5p0kGRPx/vSU3p7hJSpSUqUlKlJSpSUtKSlJKRZWVRh0uvyHbWN+ZJiQ1oGpcY0
CSl8fIpy8dmVjPFtNo3MsaZBCSkiSlJKUkpG4QUlNbJw6Mqv07q2XNg+25u8a/HVJTzXVPqD0+79
J06w4ju7Hy+v5Sdw790lPKdR+rXV+mj1L6d9RMC6kixh4/d1HPcBJTlpKWKSmJSUxISUwISUwcEl
I3BJSNwSUicElI3jQpKYN4CSkjUlJGpKSNSU2cbJsxn76zp+c3sfikpPlPsG3qXSrbMfIr1cK3Fs
/If6lJTvfVj/ABkZ7MinB6uWOZYdgyRDIPjY0+2PMQkp9Hp6lTc5psJrLZ+ifaZ/eCSm61we0OBD
h4jhJS89u6SlJKUkpUpKWcxjxD2hw5gidfmkpz7+jUev9twNmNlh/qG0sDw87XMDHz7g33/mkJKV
067rbxHU6KqyC47qju3NJeGj6UNc0NaT2IPjKSm9VfXcJY4Ej6Te4I5BHkkplubO2RPhOqHELq00
atZwkIoRykpSSltoAAboPJJTkdW+q/R+psc59IpuMkW0Da6fMDRySnk+p/UPqOMHW9Pe3LqAnZ9G
3x+idD9/ySU83kY9+NYacit1VjeWvBafxSUhKSmJSUjISUjcElI3BJSNySkT+Ckpg3gJKSNSUkak
pI0JKZ6pKWDn1u3tMFJSG9tdz97AKrCZdP0XJKdPpHWep9Od6dWQ5kbfTptduqdDvoifozu7JKey
6T9dW1zX1OcS+pm+x8foy2QA7Qu53eEeCSnqsb6wYltjabLGF5hw2OE6+QOvKSnTZdXY3dUd8cgc
/ckpk124B0ETrBEH5pKXSUpJSklKSU176S5/qVMaLD/hYG4GPzjzCiyjIdI/y/sX4+AbpK6K6ySJ
OpIkzE6d0oYIwVLJKTNSrGDhBlJTFJSpSUpJSxAJkjVJTXy8DCz6zVm0sva7s8Akf1TyPkkp5fqX
+LzGsl/TLzSYPsu9zSe3uGo+4pKeR6l0Hq3SjOZjuaz/AEjfcz/ObISU5jklI3JKRuSUjckpE/gp
KRt4CSkrUlJGpKSNSUkASUy2ApKYOoB7JKRGpzPo8funUJKYuss2ive+to/MDiayJ3ER21SU9D+3
L6MO7PsvqzLRYPs3qndZ+lHvrcQGl23t25+CAtjx8Q0Lo/Vf61dQdhxlOqNjSWY1e8tts2je/mRo
HCNdfNPECRa+w9ngfWVtrmVXtIc5gfrHB7T3TUuxRkV2/QfOn0XfS/2pKS72gwdPjokpeUlKSUqU
lKSUskpY6iElI0lKSUpJSklLSkpUpKWc5rWlzyGtGpJ0A+aSnzX66t6N9qrd0qttb5IvNftaTpth
nbjnukp5dySkbklI3JKRP4KSkbeAkpI1JSRqSkrUlJGpKSNSUyASUosBSUjfQCkpA7HLTLNCkpJi
ZFWLY12TR6zGPFjWtdth476td4a6KTHlMFso2xosdf1gZ+RIa+x1gFTi0BxBLGF24Oa2YB14UUrA
ZcUYymBLZ6j/AJz3YHT/ANqW+tWckuqpqkP/AEtO31PpjRp3iEIy4guz4jinwl2un/4y+lvsqos9
QepodzSdrh8JdGnIlOYnrMHqWBlVbsS1jg73Nhwc3XwcJ00SU3GOeR727SPAyD8ElMpSUpJS0pKV
KSmDx3SUxSUpJSklKSU0+odUxOm1l+Q8bokMBE/OeB5pKeH6t9Zs/rLvSw5ro3aO4ET4HUnTkpKe
XtczVtZc5szvf9J3aTKSkLklInJKRuSUifwUlI28BJSRqSkjUlJWpKSNSUkakpmElMgkpeElKLAU
lIn0ApKa78bu3Q+ISUwyHX3MZXkOdY2oba9foj4cJAUkyJ3azqXktNJBNbt7THuB8C08pId/6ndS
dj9UExj763eu6yXMNdY3uLQ2CHe3TsEzJkGONlIFl7rG+s9mIHuyywVNe1rXseHMcH7S1w3EaQ6U
6MhIWEU9Dj9UovaCTEiQRqCEVNn1YZvI3CdDXLtPHTVJTOQfypKUkpR1CSkZ0SUskpHfPpEiwVAf
Seeze+vZJTz/AFT6z04x+x9KHq5DmuDNRLtgLiG7tONZKSngLur5HVYycl522e8VzPeRu11Pmkpj
bmh9fo16DvGmngkprEpKYOSUjckpE5JSJ/BSUjbwElJGpKSNSUlakpI1JSRqSmYSUyCSmQSUukpU
JKWLQUlI30gpKa9mMD8UlMaLcjCyG5NUOeyYnuD9Jp8QRymZMYyRMSoGik651F3WjSyuivFrxmFl
dLCdZO4zOh5QxYvbjVk+aSbL1XQMax3RsV+DXYxtVJvycltpIFtbz6jLGGYPp/R44UiGz0T6+0ZO
e/Cb60OI9F+zkAe7cGbvCZPzSU9bhfWDCyiRvaXNIYSNDJMRB80lOoyxlg3McHDySUukpi4d0lNL
qHVMTptZfkPAdGjARJ/uHmkp4Hrf1xyepP8ARxDtqnQj6Pfs6JPGp+5JTh5bK8P623sORcz077am
OY4ueGBrmtBlrvgfEJKcj1X111V16BrAkpesuSU2W7o1SUopKRuSUjckpE/gpKRN4CSkjUlJGpKS
tSUkakpI1JTMJKZhJS4SUySUpJS6SlJKWLQUlI3VApKQWYwPZJTBlubjV2U0XWMquG22trnNa8cQ
6CElI8BzcXKJZY7HFrHVF+st3EGQ5uvLU2YsMvL5BDICXS6z1fLx8fGx6ctt911ZdmObtfL2uis7
oMHY0TB515Shdaqz8PGeE2Gz0v67depuffba29riHek4bQO0Mc3UfinMT2vSf8YHTs2KskHHtIEN
tgAk9m2D2n5wkpj1n6942PW6rB2vtiQWuFh/6MgfEpKeA6r1jJyy63KsMOkhgJI5kbv3ikpycbO3
5Lmu13CRPiCkpt5/UTmZeRfW303ZTzbbqHOc466uDRA/kj5ykpAylzjJSU2WUhqSmZEJKYOSUjck
pE5JSJ/BSUibwElJWpKZtSUlaUlJGpKSNSUzCSmYSUyCSl0lLpKXSUpJSklKSUsRKSmDqwUlIbMc
HskprPx3NBDePA6hJS1T20jaW7PhqNUlJnbbGawRHZJS1basdjnNAb5hJTm5HqZL++zsPFJTOrEJ
iRASU3asUN7JKbLaw1JSikpi5JSNySkbklInFJSN/BSUibwElM2lJSRpSUlaUlJGlJSRpSUzBSUz
CSmQSUySUukpdJSklKSUpJSklKSUqElMHVgpKQvoB7JKQOxnNJ2EtnlJTH7MTo9xcPDskpm2gdgk
pMykBJSSAElKKSmBKSkZKSmDikpE4pKRuKSkbzoUlIm8BJTMFJSRpSUkaUlJGlJSRpSUkBSUzBSU
yBSUyCSl0lLpKUkpdJSklKSUpJSklKSUpJTEtBSUxLAkpfaAkpSSlikpgSkpgSkpYQAXd5A185/u
SU2ji4n/AHMr/wC2x/ekpG/EwwCTm16awKxP5UlOdbt9207g10B0bZBnt8klNd/BSUjbwkpmCkpm
0pKSNKSkjSkpI0pKSApKZgpKZgpKZApKXCSl0lLpKXSUpJSklKSUpJSklKSUskpSSliUlMSUlMSU
lMSUlIyUlMq3PDHbH+mZEmYn6SSm4MvGgSwuPc+q5JTCzMxtp21kO7E2vj8qSnMvfY6s77N43CBu
Lo0d4pKajjoUlI28JKZgpKZgpKZgpKSNKSkjSkpI0pKZgpKZgpKZApKZApKXlJS6Sl0lKlJSklLp
KUkpaUlKSUskpUpKYkpKWJSUwJSUwJSUwJSUx3gAgiQddNOElM6867Hbspc9jZmARz/mpKYW9Qvt
Ya7HvcxwAIkdv7KSmo9wja0ESZMmePkElInHQpKRjjhJTIE+CSmYJ8ElMwT4JKZtJ8CkpI0nwP4J
KSAnwP4JKZgnwP4JKZgn90/h/ekpmCf3T+H96SmQLv3T+H96SlwT+6fw/vSUvJ/dP4f3pKXk/un8
P70lKk/un8P70lK3H90/h/ekpfcf3T+H96Slbj+6fw/vSUtuP7p/D+9JSpP7p/D+9JS0n90/h/ek
paT+6fw/vSUsSf3T+H96SmJLv3T+H96SmJJ/dP4f3pKYEnwP4f3pKRknwP4JKYOJ8D+CSkbifApK
RknwKSmBJ8ElMHExwkp//9k=</xapGImg:image>
               </rdf:li>
               <rdf:li rdf:parseType="Resource">
                  <xapTPg:PageNumber>2</xapTPg:PageNumber>
                  <xapGImg:format>JPEG</xapGImg:format>
                  <xapGImg:width>256</xapGImg:width>
                  <xapGImg:height>256</xapGImg:height>
                  <xapGImg:image>/9j/4AAQSkZJRgABAgEASABIAAD/7QAsUGhvdG9zaG9wIDMuMAA4QklNA+0AAAAAABAASAAAAAEA
AQBIAAAAAQAB/+4AE0Fkb2JlAGSAAAAAAQUAAgAD/9sAhAAKBwcHBwcKBwcKDgkJCQ4RDAsLDBEU
EBAQEBAUEQ8RERERDxERFxoaGhcRHyEhISEfKy0tLSsyMjIyMjIyMjIyAQsJCQ4MDh8XFx8rIx0j
KzIrKysrMjIyMjIyMjIyMjIyMjIyMjI+Pj4+PjJAQEBAQEBAQEBAQEBAQEBAQEBAQED/wAARCADG
AQADAREAAhEBAxEB/8QBogAAAAcBAQEBAQAAAAAAAAAABAUDAgYBAAcICQoLAQACAgMBAQEBAQAA
AAAAAAABAAIDBAUGBwgJCgsQAAIBAwMCBAIGBwMEAgYCcwECAxEEAAUhEjFBUQYTYSJxgRQykaEH
FbFCI8FS0eEzFmLwJHKC8SVDNFOSorJjc8I1RCeTo7M2F1RkdMPS4ggmgwkKGBmElEVGpLRW01Uo
GvLj88TU5PRldYWVpbXF1eX1ZnaGlqa2xtbm9jdHV2d3h5ent8fX5/c4SFhoeIiYqLjI2Oj4KTlJ
WWl5iZmpucnZ6fkqOkpaanqKmqq6ytrq+hEAAgIBAgMFBQQFBgQIAwNtAQACEQMEIRIxQQVRE2Ei
BnGBkTKhsfAUwdHhI0IVUmJy8TMkNEOCFpJTJaJjssIHc9I14kSDF1STCAkKGBkmNkUaJ2R0VTfy
o7PDKCnT4/OElKS0xNTk9GV1hZWltcXV5fVGVmZ2hpamtsbW5vZHV2d3h5ent8fX5/c4SFhoeIiY
qLjI2Oj4OUlZaXmJmam5ydnp+So6SlpqeoqaqrrK2ur6/9oADAMBAAIRAxEAPwAo0jSNKk0qykks
rd3e3iZmaJCSSikkkrhQjP0Lo/8AywW3/ImP/mnFWf8AlTyn5WudEhluNF0+aQs9XktYWY0Y92jO
BKcf4M8n/wDVh03/AKQ4P+qeKu/wZ5P/AOrDpv8A0hwf9U8Vd/gzyf8A9WHTf+kOD/qnirv8GeT/
APqw6b/0hwf9U8Vd/gzyf/1YdN/6Q4P+qeKu/wAGeT/+rDpv/SHB/wBU8Vd/gzyf/wBWHTf+kOD/
AKp4q7/Bnk//AKsOm/8ASHB/1TxV3+DPJ/8A1YdN/wCkOD/qnirv8GeT/wDqw6b/ANIcH/VPFXf4
M8n/APVh03/pDg/6p4q7/Bnk/wD6sOm/9IcH/VPFXf4M8n/9WHTf+kOD/qnirv8ABnk//qw6b/0h
wf8AVPFXf4M8n/8AVh03/pDg/wCqeKu/wZ5P/wCrDpv/AEhwf9U8Vd/gzyf/ANWHTf8ApDg/6p4q
7/Bnk/8A6sOm/wDSHB/1TxV3+DPJ/wD1YdN/6Q4P+qeKu/wZ5P8A+rDpv/SHB/1TxV3+DPJ//Vh0
3/pDg/6p4q7/AAZ5P/6sOm/9IcH/AFTxV3+DPJ//AFYdN/6Q4P8Aqnirv8GeT/8Aqw6b/wBIcH/V
PFXf4M8n/wDVh03/AKQ4P+qeKu/wZ5P/AOrDpv8A0hwf9U8Vd/gzyf8A9WHTf+kOD/qnirv8GeT/
APqw6b/0hwf9U8VSnzZ5T8q23lXWri30XT4ZodPupI5I7WFXR1hkZWVljBBBGxxV59ov/HHsP+Ya
H/k2uFCNxVnGhXt7aeX7NbC2F5LI8tY+YQhVb7Qr164pRn6X8yf9WX/ksuBU/UkqCwoSNx4Yq3iq
jFd2s0jwwzRySRfbRGDMv+sAajFVbFXYq7FVL6zbf79T7fpfaH95/J1+17Yqq4qtd0QcnYKKgVJo
Kk0A+knFV2KuxV2KuxV2KuxV2KuxV2KuxV2KuxV2KuxV2KrZGKRs4FSoJA8aDBI0CUxFlIvLev3m
szXMd1AsIgClSoYVqWG/InwzG02olkO9OTqtPHEBSf5lOKkvnP8A5Q/Xv+2bef8AJiTFXlGi/wDH
HsP+YaH/AJNrhQjcVZ15f0+4uNHsZEYxBPUDfEyMUaeJzxZKHdYyOuBKJ/Q+tpIrw3Sgt6ZlLSzb
sqRoWCjY04Hr9qu/QYq3Lo2rvAsC3XIcWV/UmlIJaGNDUEEt8asRU0FemKq1jY3ttqIjMsn1ZfUm
YcpGUszyemOT7brL8Siu6g4qpz6dqKW1pAipSyMcSPDI6SSqWjRubKgMY4irULYq4aVrbTr6t4DA
SnILLMH4AoWjBFB+yfj2Y98VWPourSsHe4UMkxaM+rMwRCYGGz8uRrEfhO1Tiqvb6XqiTmaW5YAN
CY4hPK6qqkesG5gcuQrSo2xVSfQLsztMkqcPrJu1jJanq+ryDEgf76+H54q1BpOuKspmuwHIKxBJ
5yqgxyrv6nKp5spqa9MVXy6ZrM9xE7yxrEJBJKnqyvUCZplVVKhNl478a/Riqe4q7FXYq7FXYq7F
XYq7FXYq7FWJ32h622tyalYFUT1HapZQSGhSEFQqAkj4vtN/q03OKt/o3za6xyPcBbpIZY5JA6EE
yen6fpD0aLxKAtUGtPfFV2oWnmy1ilksLppwgZ1DFGf4Xl4qqiMcqw8fH4vffFW9Ig8wupuLh5Qk
zFlWThFItDxcSrwJaoWiNXpvtiqOFnrKwekJQdgoUkFaUI3+HFV9oupyc5pZHQA04SgIPsPyI26c
uJH05Gd8JZRqwl3lFrlp7v17lbgALssokoat14k0zB0AlxG3P7R4OGNBlGbB1yS+c/8AlD9e/wC2
bef8mJMVd5M/5Q/Qf+2bZ/8AJiPFU6xV2KuxV2KuxV2KuxV2KuxV2KuxV2KuxV2KuxV2KuxV2Kux
V2KuxV2KuxV2KuxV2KuxVa6h0ZD0YEH6cEhxCkg0bSTy95Wg8vS3MsM7zm5CghwBTiWPb/WyrFiM
DuXI1OqOYAVSe5c4yS+c/wDlD9e/7Zt5/wAmJMVd5M/5Q/Qf+2bZ/wDJiPFU6xV2KuxV2KuxV2Ku
xV2KuxV2KuxV2KuxV2KuxV2KuxV2KuxV2KuxV2KuxV2KuxV2KuxV2KuxV2KpL5z/AOUP17/tm3n/
ACYkxV3kz/lD9B/7Ztn/AMmI8VTrFUFqF+bLjxi9UlHlf4uNI4uPMjY1PxdMBNJAt1jqAvZbiMIE
+rtxqGDE7uu4A2PwVpiDakUs/T2i/wDLdB/wYwod+ntF/wCW6D/gxirv09ov/LdB/wAGMVTDFXYq
7FXYq7FXYq7FXYq7FXYql+t6tHounS37oZmTZIgaF2oTStDSgBJ9hhAspAtR0jW21We4jCQRrbvJ
GVWfnODG5jBeH0l4hqVryxIpSKREmtaRFI0Ul5CjoSrKXAIINCDgQt/T2i/8t0H/AAYxV36e0X/l
ug/4MYq79PaL/wAt0H/BjFUVbXVteR+rayrNHXjyQ1FR22xVWxV2KuxV2KuxV2KuxVJfOf8Ayh+v
f9s28/5MSYq7yZ/yh+g/9s2z/wCTEeKp1iqhc2dtd8RcJz4Go3I69QeJFQfDAQCtugs7a3kklhTg
8xq5qTXcnap23Y9MQKW2Nf8AOhf8V/8AJbJK7/nQv+K/+S2Ku/50L/iv/ktiqbf4p0D/AJbF/wCB
f/mnArv8U6B/y2L/AMC//NOKu/xToH/LYv8AwL/804q7/FOgf8ti/wDAv/zTirv8U6B/y2L/AMC/
/NOKu/xToH/LYv8AwL/804q7/FOgf8ti/wDAv/zTiqMsdSstSRnspRMqGjEAihP+sBiqKxV2Koa+
0+y1KA21/AlxEa/C4rQkFaqeqmh6jfEGlBpTs9H06wmae0h9ORl9MHk7BUJDcEVmIRajooGEklJK
S3f+CfrU31v0/rHqP61fVrzqeXTbrgQpf86F/wAV/wDJbCrv+dC/4r/5LYq7/nQv+K/+S2Ko6z1v
ytp8PoWdwkUZJbiBIdz33U+GBUR/inQP+Wxf+Bf/AJpxV3+KdA/5bF/4F/8AmnFXf4p0D/lsX/gX
/wCacVd/inQP+Wxf+Bf/AJpxV3+KdA/5bF/4F/8AmnFUTY6vp2pOyWU4mZBVgAwoOn7QGKo3FUl8
5/8AKH69/wBs28/5MSYq7yZ/yh+g/wDbNs/+TEeKp1irsVdirA/0hN/1dNP/AOkc/wDVDCrv0hN/
1dNP/wCkc/8AVDFXfpCb/q6af/0jn/qhirv0hN/1dNP/AOkc/wDVDFXfpCb/AKumn/8ASOf+qGKu
/SE3/V00/wD6Rz/1QxV36Qm/6umn/wDSOf8Aqhirv0hN/wBXTT/+kc/9UMVd+kJv+rpp/wD0jn/q
hirv0hN/1dNP/wCkc/8AVDFWReWp3ngnL3MF1RwK28fpgbdCOCYFTrFXYq7FXYqwq/vpUvrlBqVj
GFlkHB4CzLRjsx9A1I+eFVD9ITf9XTT/APpGP/VDFXfpCb/q6af/ANI5/wCqGKu/SE3/AFdNP/6R
z/1QxV36Qm/6umn/APSOf+qGKu/SE3/V00//AKRz/wBUMVd+kJv+rpp//SMf+qGKu/SE3/V00/8A
6Rz/ANUMVcNQl76pp/8A0jn/AKoYq79ITf8AV00//pHP/VDFU68tXLzzzhru2uqIDxt4vTI36n92
mBWRYqkvnP8A5Q/Xv+2bef8AJiTFXeTP+UP0H/tm2f8AyYjxVOsVdirsVYN9Y/5fdJ/5Ef8AXvCr
vrH/AC+6T/yI/wCveKu+sf8AL7pP/Ij/AK94q76x/wAvuk/8iP8Ar3irvrH/AC+6T/yI/wCveKu+
sf8AL7pP/Ij/AK94q76x/wAvuk/8iP8Ar3irvrH/AC+6T/yI/wCveKu+sf8AL7pP/Ij/AK94q76x
/wAvuk/8iP8Ar3irIPLknqQTH1rWajje0Tgo2/a+Fd8CpzirsVdirsVYbfT0vrgfW9MSksg4yQ1c
fEdnPpn4vHCqh9Y/5fdJ/wCRH/XvFXfWP+X3Sf8AkR/17xV31j/l90n/AJEf9e8Vd9Y/5fdJ/wCR
H/XvFXfWP+X3Sf8AkR/17xV31j/l90n/AJEf9e8Vd9Y/5fdJ/wCRH/XvFXfWdv8Ae3Sf+RH/AF7x
V31j/l90n/kR/wBe8VTny5L6k8w9eymog2tI+DDf9r4V2wKyDFUl85/8ofr3/bNvP+TEmKu8mf8A
KH6D/wBs2z/5MR4qnWKuxV2KsZ/Qmuf9q3/pHH/NGKu/Qmuf9q3/AKRx/wA0Yq79Ca5/2rf+kcf8
0Yq79Ca5/wBq3/pHH/NGKu/Qmuf9q3/pHH/NGKu/Qmuf9q3/AKRx/wA0Yq79Ca5/2rf+kcf80Yq7
9Ca5/wBq3/pHH/NGKu/Qmuf9q3/pHH/NGKu/Qmuf9q3/AKRx/wA0YqmukWd5ZxyLefV+TMCv1ZOA
pT9rYYqmOKuxV2KuxVjtzo+sy3MssX6P9N3Zk9SAF+JNRyPDc+OKqf6E1z/tW/8ASOP+aMVd+hNc
/wC1b/0jj/mjFXfoTXP+1b/yIH/NGKu/Qmuf9q3/AKRx/wA0Yq79Ca5/2rf+kcf80Yq79Ca5/wBq
3/pHH/NGKu/Qmuf9q3/pHH/NGKu/Qmuf9q3/AKRx/wA0Yq79Ca5/2rf+kcf80YqmGkWGoWckjXn1
XiygL9Wj4Gtf2vhGKptiqS+c/wDlD9e/7Zt5/wAmJMVd5M/5Q/Qf+2bZ/wDJiPFU6xV2KuxVg36G
/wC/ck/6TP7MKHfob/v3JP8ApM/sxV36G/79yT/pM/sxV36G/wC/ck/6TP7MVd+hv+/ck/6TP7MV
d+hv+/ck/wCkz+zFXfob/v3JP+kz+zFXfob/AL9yT/pM/sxV36G/79yT/pM/sxV36G/79yT/AKTP
7MVZB5cs/qkM4+oNp3Nh8DS+tyoOte2BKc4q7FUp8wWdxeW8AtoFuWhmEpikVXRgEkT4lkkiFPj8
cqzRMgKDdp5iJNmlmhWNxaT3MktqllHIsarHGQV5KZC5HFmr9rYmm1BTbHFAxJ2pOeYkBvaDa+87
hiF062K1NDyHT/pIy5oa+veeP+rdbf8ABD/spxV317zx/wBW62/4If8AZTirvr3nj/q3W3/BD/sp
xVF6bdeaJbtE1OzhgtiDyeMgsDT4f93P39sCp3irsVdirsVdirsVdiqS+c/+UP17/tm3n/JiTFXe
TP8AlD9B/wC2bZ/8mI8VTrFXYq7FWDfob/v3JP8ApM/swod+hv8Av3JP+kz+zFXfob/v3JP+kz+z
FXfob/v3JP8ApM/sxV36G/79yT/pM/sxV36G/wC/ck/6TP7MVd+hv+/ck/6TP7MVd+hv+/ck/wCk
z+zFXfob/v3JP+kz+zFXfob/AL9yT/pM/sxVkHly0+qQzL9QbTuTA8Gl9blt1r2wJTnFXYq7FXYq
xW81i/iu5401WxiVJHVY3VuSgMQFb4eowqpfpvUv+rxp/wDwD/8ANGKu/Tepf9XjT/8AgH/5oxV3
6b1L/q8af/wD/wDNGKu/Tepf9XjT/wDgH/5oxV36b1L/AKvGn/8AAP8A80Yq79N6l/1eNP8A+Af/
AJoxV36b1L/q8af/AMA//NGKu/Tepf8AV40//gH/AOaMVd+m9S/6vGn/APAP/wA0YqmmhX91eSyr
cX1teBVBC24IK79TVRgVO8VSXzn/AMofr3/bNvP+TEmKu8mf8ofoP/bNs/8AkxHiqdYqgdZW4fTL
kWjSJMEJT0ftkjegoCd/bK84Jga5t2mMRlHFy81HRjch7pLlJeSyNSWR5CrgvIVCLKAF4rT7Ox8c
jg4t7Z6nhqNEcvL9CW/4y/7Vtz939mX04za+cOTBf0bcipArTx+jGlZLgV2KuxV2KuxV2KuxV2Ku
xV2KuxV2KuxVht9JOL24AutIUeq9FlUeoPiOz/uj8XjhVQ9S4/5bNE/4Ef8AVLFXepcf8tmif8CP
+qWKu9S4/wCWzRP+BH/VLFXepcf8tmif8CP+qWKu9S4/5bNE/wCBH/VLFXepcf8ALZon/Aj/AKpY
q71Lj/ls0T/gR/1SxV3qXH/LZon/AAI/6pYq71Lj/ls0T/gR/wBUsVTny40rTzepNYTDgKCxADDf
9qiLtgVkGKpL5z/5Q/Xv+2bef8mJMVd5M/5Q/Qf+2bZ/8mI8VTrFXYq7FUj/AExr/wD1Y2/6SE/5
oxV36Y1//qxt/wBJCf8ANGKu/TGv/wDVjb/pIT/mjFXfpjX/APqxt/0kJ/zRirv0xr//AFY2/wCk
hP8AmjFXfpjX/wDqxt/0kJ/zRirv0xr/AP1Y2/6SE/5oxV36Y1//AKsbf9JCf80Yq79Ma/8A9WNv
+khP+aMVd+mNf/6sbf8ASQn/ADRiqP027vbtHa9szYspAVTIJOQ8fhAxVG4q7FXYq7FWG3zf6bcf
Hog/evtMlZPtH+8+D7XjhVQ5f5egf8B/17xQ7l/l6B/wH/XvFXcv8vQP+A/694q7l/l6B/wH/XvF
Xcv8vQP+A/694q7l/l6B/wAB/wBe8Vdy/wAvQP8AgP8Ar3iruX+XoH/Af9e8Vdy/y9A/4D/r3iqc
+XDWeb4tNb4B/wAc9aN1/b+FdsCWQYqkvnP/AJQ/Xv8Atm3n/JiTFXeTP+UP0H/tm2f/ACYjxVOs
VdirsVYB+iP+1Bc/9JP/AF6wq79Ef9qC5/6Sf+vWKu/RH/aguf8ApJ/69Yq79Ef9qC5/6Sf+vWKu
/RH/AGoLn/pJ/wCvWKu/RH/aguf+kn/r1irv0R/2oLn/AKSf+vWKu/RH/aguf+kn/r1irv0R/wBq
C5/6Sf8Ar1irv0R/2oLn/pJ/69YqyPyxa/VYJ1+oyWHJweMsnqFtuoPFcCp5irsVdirsVYbfN/pt
x8eiD96+0yVk+0f7z4PteOFVDl/l6B/wH/XvFDuX+XoH/Af9e8Vdy/y9A/4D/r3iruX+XoH/AAH/
AF7xV3L/AC9A/wCA/wCveKu5f5egf8B/17xV3L/L0D/gP+veKu5f5egf8B/17xV3L/L0D/gP+veK
pz5cNZ5vi01vgH/HPWjdf2/hXbAlkGKpL5z/AOUP17/tm3n/ACYkxV3kz/lD9B/7Ztn/AMmI8VTr
FXYq7FWDfo3/ALU17/0kf824Vd+jf+1Ne/8ASR/zbirv0b/2pr3/AKSP+bcVd+jf+1Ne/wDSR/zb
irv0b/2pr3/pI/5txV36N/7U17/0kf8ANuKu/Rv/AGpr3/pI/wCbcVd+jf8AtTXv/SR/zbirv0b/
ANqa9/6SP+bcVd+jf+1Ne/8ASR/zbirIPLlv9XgmH1Saz5ODxnk9Qtt1GwwKnOKuxV2KuxVhd/Kw
vrkU0baV/wC+VfU+0f7zb7XjhQh/Vbw0L/gF/pirvVbw0L/gF/pirvVbw0L/AIBf6Yq71W8NC/4B
f6Yq71W8NC/4Bf6Yq71W8NC/4Bf6Yq71W8NC/wCAX+mKu9VvDQv+AX+mKu9VvDQv+AX+mKp15act
PNX9H/YH+8AAbr+3QdMCWRYqkvnP/lD9e/7Zt5/yYkxV3kz/AJQ/Qf8Atm2f/JiPFU6xV2KuxVg3
6N/7U17/ANJH/NuFXfo3/tTXv/SR/wA24q79G/8Aamvf+kj/AJtxV36N/wC1Ne/9JH/NuKu/Rv8A
2pr3/pI/5txV36N/7U17/wBJH/NuKu/Rv/amvf8ApI/5txV36N/7U17/ANJH/NuKu/Rv/amvf+kj
/m3FXfo3/tTXv/SR/wA24qyDy5b/AFeCYfVJrPk4PGeT1C23UbDAqc4q7FVC8ultIDM1DuFUE8QS
TTr2yrUZhhhZbMWI5JUtgvUuLmWBBURBTzBqGJqDT5UyOLUDJkMR06pnhMIAnqhJbDy88rvNDamV
mJkLcORYn4q171y9qW/o7y1/vm0/4TFVVdD0RgGWygIIqCEUgg4q3+gdF/5YYP8AgBirv0Dov/LD
B/wAxV36B0X/AJYYP+AGKu/QOi/8sMH/AAAxV36B0X/lhg/4AYq79A6L/wAsMH/ADFXfoHRf+WGD
/gBiqva6dY2TM1pbxwM4oxRQtR9GKonFUl85/wDKH69/2zbz/kxJirvJn/KH6D/2zbP/AJMR4qnW
KuxV2KsG/TP/AH8cn/SH/bhQ79M/9/HJ/wBIf9uKu/TP/fxyf9If9uKu/TP/AH8cn/SH/birv0z/
AN/HJ/0h/wBuKu/TP/fxyf8ASH/birv0z/38cn/SH/birv0z/wB/HJ/0h/24q79M/wDfxyf9If8A
birv0z/38cn/AEh/24qyDy5d/W4Zm+vtqPFgObRejx26U74EpzirsVU5oIrhQkoqAeQoSpB6bFSD
3yGTFHIKLKE5QNhZDZ2tu5kgiWNioQlRTYb5HHp8eM3EUmeacxRLH7vRvKUt1NLc3cazvI7SqbhV
IcklhSu2+XMFL9B+TP8Alsj/AOklP64qndvqWiW0EVtFfW/pwosaVmQnio4j9r2wKqfpnSP+W+2/
5HJ/zVirv0zpH/Lfbf8AI5P+asVd+mdI/wCW+2/5HJ/zVirv0zpH/Lfbf8jk/wCasVd+mdI/5b7b
/kcn/NWKu/TOkf8ALfbf8jk/5qxV36Z0j/lvtv8Akcn/ADViqtBfWV0xW1uIp2UVYRurkA9zxJxV
XxVJfOf/ACh+vf8AbNvP+TEmKu8mf8ofoP8A2zbP/kxHiqdYq7FXYqwb9M/9/HJ/0h/24UO/TP8A
38cn/SH/AG4q79M/9/HJ/wBIf9uKu/TP/fxyf9If9uKu/TP/AH8cn/SH/birv0z/AN/HJ/0h/wBu
Ku/TP/fxyf8ASH/birv0z/38cn/SH/birv0z/wB/HJ/0h/24q79M/wDfxyf9If8AbirIPLl39bhm
b6+2o8WA5tF6PHbpTvgSnOKuxV2KuxVAyaLpEsjSyWcLu5LMxQEkk1JOKrf0Dov/ACwwf8AMVd+g
dF/5YYP+AGKu/QOi/wDLDB/wAxV36B0X/lhg/wCAGKu/QOi/8sMH/ADFXfoHRf8Alhg/4AYq79A6
L/ywwf8AADFXfoHRf+WGD/gBirv0Dov/ACwwf8AMVV7bTrGyZntLeOFmFGKKASB2xVE4qkvnP/lD
9e/7Zt5/yYkxV3kz/lD9B/7Ztn/yYjxVOsVdirsVYn9Vvf8AqYbb/gIv64od9Vvf+phtv+Ai/rir
vqt7/wBTDbf8BF/XFXfVb3/qYbb/AICL+uKu+q3v/Uw23/ARf1xV31W9/wCphtv+Ai/rirvqt7/1
MNt/wEX9cVd9Vvf+phtv+Ai/rirvqt7/ANTDbf8AARf1xV31W9/6mG2/4CL+uKpxokU0UUomvo9Q
JYUaIKAu3Q8MUppirsVdirsVdirsVdirsVdirsVdirsVdirsVdirsVSXzn/yh+vf9s28/wCTEmKu
8mf8ofoP/bNs/wDkxHiqdYq7FXYqwP0m/wCrdpf/ACPX/qthV3pN/wBW7S/+R6/9VsVd6Tf9W7S/
+R6/9VsVd6Tf9W7S/wDkev8A1WxV3pN/1btL/wCR6/8AVbFXek3/AFbtL/5Hr/1WxV3pN/1btL/5
Hr/1WxV3pN/1btL/AOR6/wDVbFXek3/Vu0v/AJHr/wBVsVd6Tf8AVu0v/kev/VbFWReWlKwT1t7a
3+MbWrhwdv2qO++BU6xV2KuxVokKCT0G5xVLv8QaN/y2Qf8AI2Pv/s8VWf4m0D1RB+kLb1WNBH60
fIn/AFedcVVX1zSokMkl1CiDqzSIAPpLYq6PXdJmXnFdwyL05LIhH3hsVWr5g0V3aJL2BnSvJBLG
SKGhqOeKtSeYtEhIWW+t4yRUBpYwafS+Kr313SI1LyXcKKOrNIgA+ktirk13SJFDx3cLqejLIhBp
7hsVWL5j0NywS+t2KAlgJozQDqT8eKufzFokb+nJfQI56K0sYO/sXxVdJr+jxDlLeQRgmgLSxgV8
N3xVtdd0lwGS7hZT0IkQg/8ADYqkvmvXtIuvKeux215DK7addKAkqMatDIB9lj1xVMPJn/KH6D/2
zbP/AJMR4qnWKuxV2KsG+of9qiy/6S/+vuFXfUP+1RZf9Jf/AF9xV31D/tUWX/SX/wBfcVd9Q/7V
Fl/0l/8AX3FXfUP+1RZf9Jf/AF9xV31D/tUWX/SX/wBfcVd9Q/7VFl/0l/8AX3FXfUP+1RZf9Jf/
AF9xV31D/tUWX/SX/wBfcVd9Q/7VFl/0l/8AX3FWQeXIPQgmH1WG0q4PGCX1Q23Unk1MCpzirsVd
irTAMpU9CKH6cVeCeaLK88u63c6aJpjEh527MzVaN913706EjuMVY/NLK0q3KuwnUhg9SG5L9luX
XbFXozed47XRlujpz3d5HEjOiMERjtzaoV2UUqfsmn44qpR+fy7KjaVCrNQkC+U8Qe+0Facd8VRV
75os72P6tZRvaTSLJxkuCqxVEblVd1kDLU0oV35U7VIWMyQNku0vzUbC2+qX0D3s0CJzlR/gqUVu
CNJV241oefxcq1xXGSY2VMeYZLHVpbqWQXFrdTqYLeFmNbf0mHOQSB1jYNxBCFd6/Cdys5xiIili
SSVO58xXWoXqXkLR2FpaPJ6geR/UWJoowr+mr+nM3qc9irbUCDl1qN25GKMDEkn8dEs8065PrltB
bmOWKELG7wwUJeYLLypur7koFFfv7SaVTyhrzaHp9zZXEUlwvIlGFFKSAsklPU+10HHftXqTiqef
p9NHkd5Xj1OO4kaSIWsru/pcVVXlWavAlkPwoOPsD1xsGTLKR4hQH3+XkykAAsXWhfyDWFlitYtP
a5FxbyyypK44A2wghWT0ZQxNC0gBrULQgHMlilnmXzWNV0u7sreD6pG9pMztI5Uuw9MqisjIRVOZ
4/tbDpUEG2ePhs33PWfJn/KH6D/2zbP/AJMR4WCdYq7FXYqlP+FtA/5Y1/4J/wDmrFXf4W0D/ljX
/gn/AOasVd/hbQP+WNf+Cf8A5qxV3+FtA/5Y1/4J/wDmrFXf4W0D/ljX/gn/AOasVd/hbQP+WNf+
Cf8A5qxV3+FtA/5Y1/4J/wDmrFXf4W0D/ljX/gn/AOasVd/hbQP+WNf+Cf8A5qxV3+FtA/5Y1/4J
/wDmrFUZY6bZaajJZRCFXNWAJNSP9YnFUVirsVdirWKsS8/+WJ/NOmxRWaFb20cvA7ceDBhxdGPK
oBoDWh6Yq8wb8uPPKOwGmFwpIDrPbgGnccplP3jFUUPJ/wCZIUKNOYAdP3tof1zYqh1/L7z2pVl0
aNSm6kNZDietR+8xVWbyZ+Y5O+nMadP3tp/1VxVr/BX5jGv+41t+v720/wCq2Ktf4J/MWnH9GtT/
AIy2nX/kd74q1/gj8xa1OmsfnLa9/wDntirm8j/mHIrRyaXzV9mDSWhBr2NZcVb/AMEfmLQD9GtQ
dAJbSlf+R2KrP8C/mGNhpjAdB++ten/I7FWj5E/MM0rpjbbD99a9P+R2KoXVvJXnm20y7ur3TSlv
bwSSzP6tseKIhZjRJS2wHbFXtfkz/lD9B/7Ztn/yYjxVOsVdirsVdirsVdirsVdirsVdirsVdirs
VdirsVdirsVdirsVdirsVdirsVdirsVdirsVdirsVdiqS+c/+UP17/tm3n/JiTFUp8p6zqMXlXRY
k0DUJ0TT7VVljksAjgQxgOvqX6NQ9RVQfbFU2/Tuqf8AUual/wAjNO/7yWKu/Tuqf9S5qX/IzTv+
8lirv07qn/Uual/yM07/ALyWKu/Tuqf9S5qX/IzTv+8lirv07qn/AFLmpf8AIzTv+8lirv07qn/U
ual/yM07/vJYq79O6p/1Lmpf8jNO/wC8lirv07qn/Uual/yM07/vJYq79O6p/wBS5qX/ACM07/vJ
Yq79O6p/1Lmpf8jNO/7yWKu/Tuqf9S5qX/IzTv8AvJYq79O6p/1Lmpf8jNO/7yWKu/Tuqf8AUual
/wAjNO/7yWKu/Tuqf9S5qX/IzTv+8lirv07qn/Uual/yM07/ALyWKu/Tuqf9S5qX/IzTv+8lirv0
7qn/AFLmpf8AIzTv+8lirv07qn/Uual/yM07/vJYq79O6p/1Lmpf8jNO/wC8lirv07qn/Uual/yM
07/vJYq79O6p/wBS5qX/ACM07/vJYq79O6p/1Lmpf8jNO/7yWKu/Tuqf9S5qX/IzTv8AvJYq79O6
p/1Lmpf8jNO/7yWKu/Tuqf8AUual/wAjNO/7yWKu/Tuqf9S5qX/IzTv+8lirv07qn/Uual/yM07/
ALyWKu/Tuqf9S5qX/IzTv+8lirv07qn/AFLmpf8AIzTv+8lirv07qn/Uual/yM07/vJYqlPmzWdR
l8q61E+gahAj6fdK0sklgUQGGQF29O/dqDqaKT7Yq//Z</xapGImg:image>
               </rdf:li>
            </rdf:Seq>
         </xap:PageInfo>
         <xap:Thumbnails>
            <rdf:Alt>
               <rdf:li rdf:parseType="Resource">
                  <xapGImg:width>256</xapGImg:width>
                  <xapGImg:height>148</xapGImg:height>
                  <xapGImg:format>JPEG</xapGImg:format>
                  <xapGImg:image>/9j/4AAQSkZJRgABAgEASABIAAD/7QAsUGhvdG9zaG9wIDMuMAA4QklNA+0AAAAAABAASAAAAAEA
AQBIAAAAAQAB/+4ADkFkb2JlAGTAAAAAAf/bAIQABgQEBAUEBgUFBgkGBQYJCwgGBggLDAoKCwoK
DBAMDAwMDAwQDA4PEA8ODBMTFBQTExwbGxscHx8fHx8fHx8fHwEHBwcNDA0YEBAYGhURFRofHx8f
Hx8fHx8fHx8fHx8fHx8fHx8fHx8fHx8fHx8fHx8fHx8fHx8fHx8fHx8fHx8f/8AAEQgAlAEAAwER
AAIRAQMRAf/EAaIAAAAHAQEBAQEAAAAAAAAAAAQFAwIGAQAHCAkKCwEAAgIDAQEBAQEAAAAAAAAA
AQACAwQFBgcICQoLEAACAQMDAgQCBgcDBAIGAnMBAgMRBAAFIRIxQVEGE2EicYEUMpGhBxWxQiPB
UtHhMxZi8CRygvElQzRTkqKyY3PCNUQnk6OzNhdUZHTD0uIIJoMJChgZhJRFRqS0VtNVKBry4/PE
1OT0ZXWFlaW1xdXl9WZ2hpamtsbW5vY3R1dnd4eXp7fH1+f3OEhYaHiImKi4yNjo+Ck5SVlpeYmZ
qbnJ2en5KjpKWmp6ipqqusra6voRAAICAQIDBQUEBQYECAMDbQEAAhEDBCESMUEFURNhIgZxgZEy
obHwFMHR4SNCFVJicvEzJDRDghaSUyWiY7LCB3PSNeJEgxdUkwgJChgZJjZFGidkdFU38qOzwygp
0+PzhJSktMTU5PRldYWVpbXF1eX1RlZmdoaWprbG1ub2R1dnd4eXp7fH1+f3OEhYaHiImKi4yNjo
+DlJWWl5iZmpucnZ6fkqOkpaanqKmqq6ytrq+v/aAAwDAQACEQMRAD8A814q7FXYq7FXYq7FXYq7
FXYq7FXYq7FXYq7FXYq7FXYq7FXYq7FXYq7FXYq7FXYq7FXYq7FXYq7FXYq7FXYq7FXYq7FXYq7F
XYq7FXYq7FXYq7FXYq7FXYq7FXYq7FXYq7FXYq7FXYq7FXYq7FXYq7FXYq7FXYq7FXYq7FXYq7FX
Yq7FXYq7FXYq7FXYq7FXYq7FXYq7FXYq7FXYq7FXYq7FXYq7FXYq7FXYq7FXYq7FXYq7FXYq7FXY
q7FXYq7FXYq7FXYq7FXYq7FXYq7FXYq7FXYq7FXYq7FXYq7FXYq7FXYq7FXYq7FXYq7FXYq7FXYq
7FXYq7FXYq7FXYq7FXYq7FXYq7FXYq7FXYq7FXYq7FXYq7FXYq7FXYq7FXYq7FXYq7FXYq7FXYq7
FXYq7FXYq7FXYq7FXYq7FXYq7FXYq7FXYq7FXYq7FXYq7FXYq7FXYq7FXYq7FXYq7FXYq7FXYq7F
XYq7FXYq7FXYq7FXYq7FXYq7FXYq7FXYq7FXYq7FXYq7FXYq7FXYq7FXYq7FXYq9R/JDTtPb9O6v
cW0dxd6clstn6qh1Q3DOGcA/tfAKHNJ2xORMMYNRld/B2/ZWOJMpEbinpX6Zuq/Yh/5Ex/0zV/lI
efzLutnl/wCdukadb3+k6paW6W0mp27tdRxKFQyRMBz4ju3Pf5Ztex8kiJwJsQOzou1MUYyBAq3m
mbp1bsVdirsVdirsVdirsVdirsVdirsVdirsVdirsVdirsVdirsVdirsVdirsVdirsVdirsVdir1
L8j7+wA13R5rhILzUUtms1kIUSGBpCygn9r4xQZo+2IyBhkAuMbv407fsnJEGUSdzT0//DGsf76X
/g1/rmq/PYu93fCXlP53atp9xf6TpdrOlzNpkDrdyREMiySsDwqO6hd/nm37GxyAnMihM7Oi7Vyx
lIAdHmmbp1TsVdirsVdirsVdirsVdirsVdirsVeqfkx/iv8Aw157/wAJ/Wv8QfUrD6l9R5fWP+Oh
F6nDh8X91yr7VxVlpsfM0OpfllP57tWi85z+aLYwXEsaLcvpgmg4i6dAOT+vy4czzpXtirzm48kQ
615hva+YNLsL7UNRuIdP065edppJDctGA5ghmjg5H7JmZa9em+Kpfo35e395a3t/qt/aeXtMsLk2
M15qJlHK7XdoIo4I5pZHQbvRaKOp6Yqnl/5cu1/L630PTZotcun8yPHbSaZ6k8c7SafAwEXJEcn4
qEFQQa4qhF/KLUViv7i513R7a00iaC31i4aeV1tprhZGEX7uJvWdDDxZYefxEdQGKqq15+TOoWIi
uL/zFotppN6oOjatJcyG3vieoh4RO6+mfhkMiqEPU4qk48gTWl/qVj5h1jT/AC/c6ZN9WljvHmld
5ach6cdnFcuY6UPqceO/U9MVVoPyw106lq9re3VlptpoZjXUNVu5WFoDcCtvwaNJJJDMvxIFQmm5
piqZap5E8weWdI12K01/TL+zk021u9WjsfrEglspb22+rGOWe1iRuU8iNWJ9uDBiD8JVS/U/y2l0
myk/S+vaXp+tx2/1t/L8z3Bu1T0/UWN2SF4EndacYmkB33odsVQ+k+UZYL/T2vdRsrK8keGeOwnd
xMULBl5FUaNGYUKqzA4qr675YlvNe17Urq8t9N08andwx3F0X/eSCViVjSNZHbjUVNKYVS4+TNQi
uLhbu5trWzt0ilbUHdmgdLivotGY1d29TiafD2NaUwK2mg65LZfo6zngvLaTUIoI47dg4kuHiJR1
cqPh4VBqwp3GKqo8jStCskWsadOTcR2nCJ7hyJpiQisVh4gGh+Imm2xxVZc+SrmFbuJNQs7jUbFH
lutOhdzKqR/bIYoI2ZACWVWqBirIfyf8o6Jrc+qahrEJurfS0h9O0qVV5J2cBmKkGi+n0980/a2q
yY+GMDRne/udp2XpI5pHi6PTP8LeQ/8AqW7X72zT+PqP9Uk7/wDkzD/NDy383fKGk6Bqdjc6TGYL
LU4WkFsWLCORGAcKTU8TyGbrsnVzyxkJ7yiebz3aeljhmOHkWA5tnWuxV2KuxV2KuxV2KuxV2Kux
V2KuxVn/AOXP1G68qedtFm1Gz0681W0sUsmv51t43aC/incc32qEjJxVl3kHUND8mWdrpmt+Y7LU
ZL7XtFubO0s5/rNrYR2V6s1zeyS09KItHWOitUgmop0VX6Te+Vrd9O1LRdQ0Gzu5NVup/MeqausN
zcqv11jAlpBLHcFYzAA3qxJXkfiZcVQXnO00TzTBc6Np/mLSo9T0nWtTvYfXulgs7q11N45Q8V1M
I4fViaLiy8qEfZJpiqh5f826f5G8pXGjTT2mrm51K4t9QGnXA9YWl3YQhprO5AqjqwKcqFTRlNQc
VSfXrXy5pf5c39jpOtwapDqGs6fe2CAiO7WCO0vUkFxb1LRvE8iq3VTUFSa4qlvm7U9PufIfkOzt
7iOW6sLTUEvYEYF4mk1GaRA4/ZLIwYe2Ks+1O/8AKV9Preo6Vd6I/mV7iwQX+tNFNbw6emnwo720
EyTRTS/WAyv8DuoHwr1xVO59O07zBrfnCV7qz8x+W9QtdOvhFZziyX67BAkMVL2cQ2lnLxklJjcM
SlV4AjZVi2vanqWnWXmCLWtOg0SA6Hp9p5Y01LhLmOW2tdYt5isVwjSLO1RK7sp8dhiqTefPLem+
Yde1jzfpHmPS20rVZZ9TW3vLtIL6KSYmVrVrVv3pdWJRSgKHb4sVS+8s7DWfMieYrbVbK3tLiWO5
uIbucRTQOCpeP0yOTgEfCUBFMKplf+YZdQN7baPqtpaT2uo30ipdmARXEFxOZElimmUoGHQioqKH
FCXfpDWmvmDa9pd/J9XjgurS44LatGHdxGCyJE/pk8uSkGrfCTilXgutPS9itvLskaudZtZYIUWS
dQv1crOyxn948Ict78cUIi7tG0m7CadpqWmirqNrNqV99biuiEhmonJY2b0Y+TVo1T0qcVYzo17a
Rebru5kmRLd01ELKSApMttMqUP8AlMwAwJZ1+QpWS18y2iEG5kSzkji/aZY3l5kD25D785/tzaWO
R5er9Dvew5ASl8P0vSPqF9/yzy/8A39M1Xix7w9LxDveY/n5NGtzoNkWH1m3tpHmj7qJGXjX/gDm
37DFicuhLy/bUgZgPKM3zpXYq7FXYq7FXYq7FXYq7FXYq7FXYq7FXYq7FXYq7FXYq7FXYqyTy/5s
s7LSJtE1jS11fSJLhb2OH15LaWKdUMbPHJHUfGlAwZW6ClMVU/NXmuPWotOsrLTotJ0fSo5I7Gwi
eSajTSGSWSSWUs7u7EV6CgAAxVj+KuxV2KuxVGaTqc2mXyXcSrIVV45InrxeOVDHIh4kH4kYjY4q
mE3mCwjsbm10vS1sXvEEVzcNNJM5j5ByicqBQzKK7E++KpHirOPyt8s/pO9vtVl1K40uz0dEaaez
bhcM05ZURG3ArxNdj4ZrO0tRwiMBESlPv5bOx7O0xySJsx4e7m9L+t6GRT9OeZR/lfWo/vzU/lsv
8zD8i7z8p/Tn83lv5m+WH0bWILpL+bUrPVYvrNvd3JLTmhoyyMftMu2+bjs3U+JAxMRGUDRA5fB0
Gv0xxT53few7Ni4LsVdirsVdirsVdirsVdirsVdirsVdirsVdirsVdirsVdirsVdirsVdirsVdir
sVdirsVdir1D8olZvLPm9VFTTT2oPBZZST9AzTdpGs+L/P8AuDvOxf4vh+lNctd6lP5z/Dp/lWJt
pFtJmKnqAzJxP00ynsrfJlP9IOg7ZPqj8XmGbp0rsVdirsVdirsVdirsVdirsVdirsVdirsVdirs
VdirsVdirsVdirsVdirsVdirsVdirsVdiqb+WvNWueW743uk3HoyOvCVGAeN060dTscx9TpceaPD
MW3Yc88RuJZZ/wArw829rTTQexFsaj/h8wP5Fxfzp/Nzf5Wy+TD/ADD5j1jzDqTajqs5nuWARdgq
oi9ERRsoFc2Gn08MMeGAoODmzSyS4pHdLMvanYq7FXYq7FXYq7FXYq7FXYq7FXYq7FXYq7FXYq7F
XYq7FXYq7FXYq7FXYq7FXYq7FXYq7FXYq7FXYq7FXYq7FXYq7FXYq7FXYq7FXYq7FXYq7FXYq7FX
Yq7FXYq7FXYq7FXYq7FXYq7FXYq7FXYq7FXYq7FXYq7FXYq7FXYq7FXYq7FXYq7FXYq7FXYq7FXY
q7FXYq7FXYq7FXYq7FXYq7FXYq7FXYq7FXYq7FXYq7FXYq7FXYq7FXYq7FXYq7FXYq7FXYq7FXYq
7FXYq7FXYq7FXYq7FXYq7FXYq7FXYq7FXYq7FXYq7FXYq7FXYq7FXYq7FXYq7FXYq7FXYq7FXYq7
FXYq7FXYq7FXYq7FXYq7FXYq7FXYq7FXYq7FXYq7FXYq7FXYq7FXYq7FXYq7FXYq7FXYq+xv+sQ/
+1L/AMlMVd/1iH/2pf8Akpirv+sQ/wDtS/8AJTFXf9Yh/wDal/5KYq7/AKxD/wC1L/yUxV3/AFiH
/wBqX/kpirv+sQ/+1L/yUxV3/WIf/al/5KYq7/rEP/tS/wDJTFXf9Yh/9qX/AJKYq7/rEP8A7Uv/
ACUxV3/WIf8A2pf+SmKu/wCsQ/8AtS/8lMVd/wBYh/8Aal/5KYq7/rEP/tS/8lMVd/1iH/2pf+Sm
Ku/6xD/7Uv8AyUxV3/WIf/al/wCSmKu/6xD/AO1L/wAlMVd/1iH/ANqX/kpirv8ArEP/ALUv/JTF
Xf8AWIf/AGpf+SmKu/6xD/7Uv/JTFXf9Yh/9qX/kpirv+sQ/+1L/AMlMVd/1iH/2pf8Akpirv+sQ
/wDtS/8AJTFXf9Yh/wDal/5KYq7/AKxD/wC1L/yUxV3/AFiH/wBqX/kpirv+sQ/+1L/yUxV3/WIf
/al/5KYq/wD/2Q==</xapGImg:image>
               </rdf:li>
            </rdf:Alt>
         </xap:Thumbnails>
      </rdf:Description>
      <rdf:Description rdf:about="" xmlns:xapMM="http://ns.adobe.com/xap/1.0/mm/" xmlns:stRef="http://ns.adobe.com/xap/1.0/sType/ResourceRef#">
         <xapMM:DocumentID>uuid:0401AE92668AE1118F20E1EE77F1138C</xapMM:DocumentID>
         <xapMM:InstanceID>uuid:0501AE92668AE1118F20E1EE77F1138C</xapMM:InstanceID>
         <xapMM:DerivedFrom rdf:parseType="Resource">
            <stRef:instanceID>uuid:0301AE92668AE1118F20E1EE77F1138C</stRef:instanceID>
            <stRef:documentID>uuid:0101AE92668AE1118F20E1EE77F1138C</stRef:documentID>
         </xapMM:DerivedFrom>
      </rdf:Description>
      <rdf:Description rdf:about="" xmlns:idPriv="http://ns.adobe.com/xmp/InDesign/private">
         <idPriv:DocChangeCount>19360</idPriv:DocChangeCount>
      </rdf:Description>
      <rdf:Description rdf:about="" xmlns:pdf="http://ns.adobe.com/pdf/1.3/">
         <pdf:Trapped>False</pdf:Trapped>
      </rdf:Description>
      <rdf:Description rdf:about="" xmlns:xapTPg="http://ns.adobe.com/xap/1.0/t/pg/" xmlns:stDim="http://ns.adobe.com/xap/1.0/sType/Dimensions#" xmlns:xapG="http://ns.adobe.com/xap/1.0/g/">
         <xapTPg:MaxPageSize rdf:parseType="Resource">
            <stDim:w>792.000000</stDim:w>
            <stDim:h>612.000000</stDim:h>
            <stDim:unit>Points</stDim:unit>
         </xapTPg:MaxPageSize>
         <xapTPg:NPages>1</xapTPg:NPages>
         <xapTPg:HasVisibleTransparency>False</xapTPg:HasVisibleTransparency>
         <xapTPg:HasVisibleOverprint>False</xapTPg:HasVisibleOverprint>
         <xapTPg:PlateNames>
            <rdf:Seq>
               <rdf:li>Cyan</rdf:li>
               <rdf:li>Magenta</rdf:li>
               <rdf:li>Yellow</rdf:li>
               <rdf:li>Black</rdf:li>
            </rdf:Seq>
         </xapTPg:PlateNames>
         <xapTPg:SwatchGroups>
            <rdf:Seq>
               <rdf:li rdf:parseType="Resource">
                  <xapG:groupName>Default Swatch Group</xapG:groupName>
                  <xapG:groupType>0</xapG:groupType>
               </rdf:li>
            </rdf:Seq>
         </xapTPg:SwatchGroups>
      </rdf:Description>
   </rdf:RDF>
</x:xmpmeta>
                                                                                                    
                                                                                                    
                                                                                                    
                                                                                                    
                                                                                                    
                                                                                                    
                                                                                                    
                                                                                                    
                                                                                                    
                                                                                                    
                                                                                                    
                                                                                                    
                                                                                                    
                                                                                                    
                                                                                                    
                                                                                                    
                                                                                                    
                                                                                                    
                                                                                                    
                                                                                                    
                           
<?xpacket end="w"?>
	</metadata>
<rect id="Background_Square" x="-20" y="-20" fill="#111111" width="215" height="122"/>
<g>
	<defs>
		<rect id="SVGID_1_" x="20.229" y="20" width="132.204" height="48.661"/>
	</defs>
	<clipPath id="SVGID_2_">
		<use xlink:href="#SVGID_1_" overflow="visible"/>
	</clipPath>
	<path clip-path="url(#SVGID_2_)" fill="#A7423B" d="M141.613,61.921c-1.606,0-2.91-1.302-2.91-2.911v-5.589   c0-1.606,1.304-2.91,2.91-2.91h5.588c1.608,0,2.912,1.304,2.912,2.91v5.589c0,1.609-1.304,2.911-2.912,2.911H141.613z"/>
	<path clip-path="url(#SVGID_2_)" fill="#FAA634" d="M141.613,49.702c-2.05,0-3.718,1.669-3.718,3.719v5.589   c0,2.051,1.668,3.72,3.718,3.72h5.588c2.051,0,3.72-1.669,3.72-3.72v-5.589c0-2.05-1.669-3.719-3.72-3.719H141.613z M139.512,59.01   v-5.589c0-1.159,0.943-2.102,2.102-2.102h5.588c1.16,0,2.104,0.943,2.104,2.102v5.589c0,1.16-0.943,2.103-2.104,2.103h-5.588   C140.455,61.113,139.512,60.17,139.512,59.01"/>
	<path clip-path="url(#SVGID_2_)" fill="#DF6D36" d="M141.613,47.334c-1.606,0-2.91-1.303-2.91-2.91v-5.589   c0-1.607,1.304-2.91,2.91-2.91h5.588c1.608,0,2.912,1.303,2.912,2.91v5.589c0,1.607-1.304,2.91-2.912,2.91H141.613z"/>
	<path clip-path="url(#SVGID_2_)" fill="#FAA634" d="M141.613,35.117c-2.05,0-3.718,1.668-3.718,3.718v5.589   c0,2.05,1.668,3.719,3.718,3.719h5.588c2.051,0,3.72-1.669,3.72-3.719v-5.589c0-2.05-1.669-3.718-3.72-3.718H141.613z    M139.512,44.424v-5.589c0-1.159,0.943-2.101,2.102-2.101h5.588c1.16,0,2.104,0.942,2.104,2.101v5.589   c0,1.159-0.943,2.102-2.104,2.102h-5.588C140.455,46.526,139.512,45.583,139.512,44.424"/>
	<path clip-path="url(#SVGID_2_)" fill="#BA683D" d="M141.613,32.786c-1.606,0-2.91-1.303-2.91-2.912v-5.588   c0-1.607,1.304-2.91,2.91-2.91h5.588c1.608,0,2.912,1.303,2.912,2.91v5.588c0,1.609-1.304,2.912-2.912,2.912H141.613z"/>
	<path clip-path="url(#SVGID_2_)" fill="#FAA634" d="M141.613,20.567c-2.05,0-3.718,1.668-3.718,3.719v5.588   c0,2.051,1.668,3.72,3.718,3.72h5.588c2.051,0,3.72-1.669,3.72-3.72v-5.588c0-2.051-1.669-3.719-3.72-3.719H141.613z    M139.512,29.874v-5.588c0-1.159,0.943-2.102,2.102-2.102h5.588c1.16,0,2.104,0.943,2.104,2.102v5.588   c0,1.16-0.943,2.104-2.104,2.104h-5.588C140.455,31.978,139.512,31.034,139.512,29.874"/>
	<path clip-path="url(#SVGID_2_)" fill="#FFFFFF" d="M24.267,46.057h3.561c1.253,0,2.246-0.29,2.979-0.874   c0.734-0.582,1.102-1.367,1.102-2.353c0-1.646-0.938-2.672-2.811-3.078c1.166-0.633,1.749-1.535,1.749-2.707   c0-0.981-0.343-1.75-1.027-2.307c-0.684-0.557-1.691-0.836-3.02-0.836h-2.533V46.057z M26.473,34.68   c2.237,0,3.355,0.811,3.355,2.431c0,1.615-1.106,2.423-3.32,2.423h-1.306V34.68H26.473z M27.311,40.326   c2.396,0,3.592,0.83,3.592,2.49c0,0.749-0.269,1.346-0.811,1.793c-0.541,0.448-1.331,0.671-2.372,0.671h-2.518v-4.954H27.311z"/>
	<rect x="33.108" y="33.902" clip-path="url(#SVGID_2_)" fill="#FFFFFF" width="0.862" height="12.155"/>
	<path clip-path="url(#SVGID_2_)" fill="#FFFFFF" d="M41.113,45.391c-0.127,0-0.191-0.136-0.191-0.409v-4.997   c0-0.68-0.234-1.199-0.705-1.557c-0.469-0.357-1.066-0.536-1.791-0.536c-0.817,0-1.679,0.283-2.584,0.85v0.877   c0.875-0.68,1.69-1.02,2.443-1.02c1.182,0,1.773,0.547,1.773,1.641v1.019c-1.494,0.077-2.644,0.366-3.448,0.869   c-0.805,0.504-1.207,1.192-1.207,2.064c0,0.566,0.209,1.045,0.625,1.441c0.418,0.396,0.927,0.593,1.528,0.593   c0.828,0,1.663-0.331,2.502-0.993c0.035,0.401,0.09,0.667,0.165,0.797c0.076,0.13,0.214,0.196,0.41,0.196   c0.342,0,0.882-0.276,1.618-0.831v-0.711C41.655,45.156,41.276,45.391,41.113,45.391 M40.059,44.484   c-0.753,0.69-1.494,1.035-2.225,1.035c-0.452,0-0.828-0.129-1.13-0.385c-0.301-0.256-0.451-0.572-0.451-0.944   c0-0.666,0.36-1.212,1.081-1.641c0.721-0.428,1.63-0.623,2.725-0.582V44.484z"/>
	<path clip-path="url(#SVGID_2_)" fill="#FFFFFF" d="M46.553,37.892c-1.13,0-2.061,0.4-2.788,1.199   c-0.726,0.8-1.091,1.829-1.091,3.091c0,1.209,0.361,2.185,1.083,2.929c0.72,0.744,1.666,1.116,2.835,1.116   c0.685,0,1.425-0.136,2.225-0.411v-0.891c-0.753,0.311-1.471,0.466-2.154,0.466c-0.938,0-1.687-0.298-2.244-0.893   c-0.558-0.596-0.838-1.4-0.838-2.412c0-0.995,0.28-1.803,0.839-2.425c0.559-0.623,1.285-0.934,2.178-0.934   c0.619,0,1.312,0.17,2.078,0.509v-0.947C47.881,38.024,47.173,37.892,46.553,37.892"/>
	<rect x="49.956" y="33.902" clip-path="url(#SVGID_2_)" fill="#FFFFFF" width="0.848" height="12.155"/>
	<polygon clip-path="url(#SVGID_2_)" fill="#FFFFFF" points="55.347,38.048 50.932,41.855 55.988,46.057 57.158,46.057    52.097,41.851 56.479,38.048  "/>
	<path clip-path="url(#SVGID_2_)" fill="#FFFFFF" d="M57.142,38.048v8.009h0.85V40.44c0.679-1.142,1.483-1.713,2.413-1.713   c0.64,0,1.148,0.239,1.531,0.719c0.381,0.479,0.569,1.162,0.569,2.05v4.561h0.863v-5.46c0.388-0.654,0.764-1.13,1.129-1.426   c0.365-0.296,0.794-0.444,1.286-0.444c0.66,0,1.174,0.248,1.537,0.744c0.365,0.497,0.548,1.177,0.548,2.042v4.544h0.849v-4.918   c0-0.981-0.254-1.767-0.764-2.359c-0.508-0.593-1.178-0.888-2.006-0.888c-1.101,0-2.025,0.641-2.778,1.922   c-0.5-1.281-1.363-1.922-2.589-1.922c-1.052,0-1.903,0.522-2.554,1.566h-0.035v-1.41H57.142z"/>
	<path clip-path="url(#SVGID_2_)" fill="#FFFFFF" d="M75.705,45.391c-0.129,0-0.192-0.136-0.192-0.409v-4.997   c0-0.68-0.235-1.199-0.705-1.557c-0.47-0.357-1.065-0.536-1.791-0.536c-0.817,0-1.679,0.283-2.583,0.85v0.877   c0.874-0.68,1.689-1.02,2.442-1.02c1.183,0,1.773,0.547,1.773,1.641v1.019c-1.493,0.077-2.643,0.366-3.447,0.869   c-0.806,0.504-1.208,1.192-1.208,2.064c0,0.566,0.209,1.045,0.626,1.441s0.926,0.593,1.528,0.593c0.828,0,1.661-0.331,2.501-0.993   c0.035,0.401,0.089,0.667,0.165,0.797s0.213,0.196,0.409,0.196c0.343,0,0.882-0.276,1.619-0.831v-0.711   C76.247,45.156,75.867,45.391,75.705,45.391 M74.649,44.484c-0.753,0.69-1.495,1.035-2.225,1.035c-0.452,0-0.829-0.129-1.13-0.385   s-0.452-0.572-0.452-0.944c0-0.666,0.361-1.212,1.082-1.641c0.721-0.428,1.63-0.623,2.725-0.582V44.484z"/>
	<path clip-path="url(#SVGID_2_)" fill="#FFFFFF" d="M83.944,38.048h-3.209c-1.095,0-1.935,0.266-2.52,0.796   c-0.586,0.531-0.879,1.218-0.879,2.061c0,0.591,0.181,1.129,0.545,1.614c0.362,0.485,0.894,0.832,1.597,1.041v0.035   c-1.069,0.308-1.604,0.744-1.604,1.306c0,0.557,0.434,0.938,1.3,1.141v0.035c-1.555,0.249-2.332,0.896-2.332,1.941   c0,0.646,0.303,1.163,0.91,1.555c0.608,0.392,1.47,0.587,2.588,0.587c1.123,0,2-0.206,2.631-0.622   c0.63-0.415,0.946-0.984,0.946-1.71c0-0.614-0.197-1.107-0.591-1.479c-0.393-0.37-1.154-0.588-2.285-0.652   s-1.805-0.166-2.021-0.306c-0.218-0.14-0.326-0.325-0.326-0.559c0-0.197,0.084-0.372,0.253-0.523   c0.168-0.152,0.583-0.313,1.244-0.484c0.661-0.172,1.19-0.347,1.588-0.524c0.398-0.177,0.74-0.46,1.027-0.85   c0.287-0.389,0.43-0.917,0.43-1.585c0-0.743-0.367-1.452-1.104-2.125h1.812V38.048z M83.096,47.9c0,0.465-0.244,0.841-0.732,1.126   c-0.488,0.285-1.146,0.427-1.972,0.427c-1.82,0-2.729-0.494-2.729-1.483c0-0.99,0.965-1.484,2.895-1.484   C82.25,46.486,83.096,46.959,83.096,47.9 M82.417,40.883c0,0.588-0.21,1.092-0.632,1.513c-0.42,0.421-0.922,0.633-1.508,0.633   c-0.591,0-1.092-0.213-1.504-0.637c-0.411-0.424-0.617-0.939-0.617-1.543c0-0.582,0.204-1.077,0.609-1.483   c0.405-0.407,0.904-0.61,1.496-0.61c0.596,0,1.104,0.208,1.523,0.624C82.207,39.795,82.417,40.296,82.417,40.883"/>
	<rect x="84.919" y="33.901" clip-path="url(#SVGID_2_)" fill="#FFFFFF" width="0.863" height="1.458"/>
	<rect x="84.919" y="38.048" clip-path="url(#SVGID_2_)" fill="#FFFFFF" width="0.863" height="8.009"/>
	<path clip-path="url(#SVGID_2_)" fill="#FFFFFF" d="M91.206,37.892c-1.13,0-2.061,0.4-2.788,1.199   c-0.728,0.8-1.091,1.829-1.091,3.091c0,1.209,0.36,2.185,1.082,2.929c0.721,0.744,1.667,1.116,2.835,1.116   c0.685,0,1.426-0.136,2.225-0.411v-0.891c-0.752,0.311-1.47,0.466-2.153,0.466c-0.938,0-1.686-0.298-2.245-0.893   c-0.559-0.596-0.837-1.4-0.837-2.412c0-0.995,0.279-1.803,0.839-2.425c0.559-0.623,1.284-0.934,2.178-0.934   c0.62,0,1.312,0.17,2.078,0.509v-0.947C92.534,38.024,91.826,37.892,91.206,37.892"/>
	<path clip-path="url(#SVGID_2_)" fill="#9D9FA2" d="M100.707,33.901v4.634c-0.839-0.429-1.625-0.644-2.36-0.644   c-1.157,0-2.119,0.396-2.887,1.187c-0.766,0.791-1.148,1.781-1.148,2.973c0,1.174,0.389,2.163,1.168,2.968   c0.777,0.806,1.732,1.207,2.867,1.207c0.845,0,1.632-0.26,2.36-0.782v0.612h0.863V33.901H100.707z M100.707,44.662   c-0.693,0.487-1.411,0.73-2.15,0.73c-0.955,0-1.749-0.322-2.386-0.967c-0.637-0.646-0.954-1.455-0.954-2.426   c0-0.954,0.299-1.738,0.894-2.35c0.595-0.614,1.353-0.921,2.272-0.921c0.786,0,1.562,0.249,2.324,0.747V44.662z"/>
	<path clip-path="url(#SVGID_2_)" fill="#9D9FA2" d="M104.74,44.459c-0.639-0.62-0.957-1.379-0.957-2.272   c0-0.14,0.01-0.28,0.025-0.417h6.314c0-1.195-0.342-2.139-1.028-2.835c-0.684-0.695-1.522-1.044-2.515-1.044   c-1.058,0-1.934,0.386-2.629,1.156c-0.697,0.77-1.045,1.742-1.045,2.916c0,1.238,0.378,2.259,1.132,3.061   c0.754,0.802,1.708,1.202,2.861,1.202c1.139,0,2.164-0.353,3.081-1.059v-0.965c-0.969,0.793-1.961,1.189-2.977,1.189   C106.134,45.392,105.379,45.082,104.74,44.459 M104.877,39.344c0.479-0.411,1.047-0.617,1.704-0.617c1.39,0,2.233,0.784,2.537,2.35   h-5.195C104.079,40.331,104.396,39.753,104.877,39.344"/>
	<path clip-path="url(#SVGID_2_)" fill="#9D9FA2" d="M113.65,37.892c-0.72,0-1.329,0.214-1.831,0.641   c-0.503,0.428-0.756,0.947-0.756,1.557c0,0.43,0.136,0.821,0.405,1.172c0.272,0.351,0.86,0.707,1.769,1.067   c0.908,0.36,1.467,0.659,1.677,0.895c0.208,0.235,0.312,0.493,0.312,0.771c0,0.408-0.159,0.743-0.475,1.005   c-0.319,0.261-0.724,0.391-1.219,0.391c-0.734,0-1.575-0.243-2.523-0.735v0.835c0.796,0.492,1.597,0.736,2.406,0.736   c0.743,0,1.368-0.213,1.873-0.641c0.506-0.427,0.76-0.952,0.76-1.573c0-0.465-0.14-0.886-0.419-1.265   c-0.279-0.377-0.872-0.744-1.779-1.098c-0.903-0.353-1.459-0.645-1.66-0.874c-0.202-0.229-0.303-0.479-0.303-0.75   c0-0.383,0.165-0.704,0.495-0.965c0.331-0.26,0.737-0.391,1.218-0.391c0.649,0,1.381,0.274,2.192,0.821v-0.919   C115.02,38.12,114.307,37.892,113.65,37.892"/>
	<rect x="117.394" y="33.901" clip-path="url(#SVGID_2_)" fill="#9D9FA2" width="0.863" height="1.458"/>
	<rect x="117.394" y="38.048" clip-path="url(#SVGID_2_)" fill="#9D9FA2" width="0.863" height="8.009"/>
	<path clip-path="url(#SVGID_2_)" fill="#9D9FA2" d="M126.482,38.048h-3.21c-1.095,0-1.935,0.266-2.521,0.796   c-0.586,0.531-0.878,1.218-0.878,2.061c0,0.591,0.181,1.129,0.544,1.614c0.362,0.485,0.896,0.832,1.597,1.041v0.035   c-1.069,0.308-1.603,0.744-1.603,1.306c0,0.557,0.433,0.938,1.3,1.141v0.035c-1.557,0.249-2.333,0.896-2.333,1.941   c0,0.646,0.304,1.163,0.911,1.555c0.606,0.392,1.47,0.587,2.587,0.587c1.122,0,1.999-0.206,2.631-0.622   c0.63-0.415,0.945-0.984,0.945-1.71c0-0.614-0.196-1.107-0.59-1.479c-0.393-0.37-1.155-0.588-2.285-0.652   c-1.131-0.064-1.804-0.166-2.021-0.306c-0.219-0.14-0.326-0.325-0.326-0.559c0-0.197,0.086-0.372,0.253-0.523   c0.168-0.152,0.584-0.313,1.244-0.484c0.661-0.172,1.191-0.347,1.588-0.524c0.398-0.177,0.74-0.46,1.027-0.85   c0.287-0.389,0.431-0.917,0.431-1.585c0-0.743-0.368-1.452-1.104-2.125h1.812V38.048z M125.633,47.9   c0,0.465-0.243,0.841-0.732,1.126c-0.488,0.285-1.145,0.427-1.972,0.427c-1.82,0-2.731-0.494-2.731-1.483   c0-0.99,0.967-1.484,2.896-1.484C124.787,46.486,125.633,46.959,125.633,47.9 M124.953,40.883c0,0.588-0.211,1.092-0.63,1.513   c-0.421,0.421-0.923,0.633-1.508,0.633c-0.591,0-1.093-0.213-1.504-0.637c-0.412-0.424-0.617-0.939-0.617-1.543   c0-0.582,0.202-1.077,0.608-1.483c0.405-0.407,0.904-0.61,1.496-0.61c0.596,0,1.104,0.208,1.524,0.624   C124.742,39.795,124.953,40.296,124.953,40.883"/>
	<path clip-path="url(#SVGID_2_)" fill="#9D9FA2" d="M127.314,38.048v8.009h0.849V40.44c0.686-1.142,1.559-1.713,2.62-1.713   c1.452,0,2.178,0.923,2.178,2.769v4.561h0.85v-4.883c0-1.027-0.27-1.831-0.811-2.411c-0.539-0.581-1.262-0.871-2.165-0.871   c-1.092,0-1.971,0.516-2.637,1.549h-0.035v-1.393H127.314z"/>
</g>
</svg>